<?xml version="1.0" encoding="UTF-8"?>
<svg xmlns="http://www.w3.org/2000/svg" xmlns:xlink="http://www.w3.org/1999/xlink" width="200px" height="200px" viewBox="0 0 200 200" version="1.1">
<g id="surface1">
<path style=" stroke:none;fill-rule:nonzero;fill:rgb(0%,54.11765%,78.823531%);fill-opacity:1;" d="M 142.941406 182.382812 L 132.472656 182.382812 C 130.851562 182.382812 130.039062 181.570312 130.039062 179.949219 L 130.039062 34.132812 C 130.039062 32.511719 130.851562 31.699219 132.472656 31.699219 L 142.941406 31.699219 C 144.5625 31.699219 145.375 32.511719 145.375 34.132812 L 145.375 179.949219 C 145.375 181.570312 144.5625 182.382812 142.941406 182.382812 Z M 142.941406 182.382812 "/>
<path style=" stroke:none;fill-rule:nonzero;fill:rgb(0%,54.11765%,78.823531%);fill-opacity:1;" d="M 58.976562 35.386719 L 128.640625 105.125 C 129.097656 105.566406 129.359375 106.179688 129.359375 106.820312 C 129.359375 107.457031 129.097656 108.070312 128.640625 108.515625 L 58.976562 178.253906 C 58.269531 178.9375 57.222656 179.132812 56.320312 178.746094 C 55.417969 178.359375 54.835938 177.464844 54.847656 176.484375 L 54.847656 36.859375 C 54.945312 35.929688 55.566406 35.140625 56.449219 34.824219 C 57.328125 34.511719 58.308594 34.730469 58.976562 35.386719 Z M 58.976562 35.386719 "/>
</g>
</svg>
