<?xml version="1.0" standalone="no"?><!DOCTYPE svg PUBLIC "-//W3C//DTD SVG 1.1//EN" "http://www.w3.org/Graphics/SVG/1.1/DTD/svg11.dtd"><svg t="1743865119826" class="icon" viewBox="0 0 1024 1024" version="1.1" xmlns="http://www.w3.org/2000/svg" p-id="34336" data-darkreader-inline-fill="" xmlns:xlink="http://www.w3.org/1999/xlink" width="200" height="200"><path d="M933.03239111 167.49909333L167.57191111 933.03239111c-21.18997333 21.11715555-55.48714667 21.11715555-76.60430222 0s-21.11715555-55.41432889 0-76.60430222L856.42808889 90.96760889c21.18997333-21.11715555 55.48714667-21.11715555 76.60430222 0C954.14954667 112.08476445 954.14954667 146.38193778 933.03239111 167.49909333zM933.03239111 933.03239111c-21.11715555 21.11715555-55.41432889 21.11715555-76.60430222 0L90.96760889 167.49909333c-21.11715555-21.18997333-21.11715555-55.41432889 0-76.53148444 21.11715555-21.11715555 55.41432889-21.11715555 76.60430222 0L933.03239111 856.42808889C954.14954667 877.61806222 954.14954667 911.91523555 933.03239111 933.03239111z" fill="#1296db" p-id="34337" data-darkreader-inline-fill="" style="--darkreader-inline-fill: var(--darkreader-background-1296db, #487685);"></path></svg>